<?xml version="1.0" encoding="UTF-8"?>
<svg id="Capa_2" data-name="Capa 2" xmlns="http://www.w3.org/2000/svg" viewBox="0 0 427.36 252.51">
  <defs>
    <style>
      .cls-1 {
        fill: #b89a5e;
      }

      .cls-2 {
        fill: #f4efe5;
      }
    </style>
  </defs>
  <g id="Capa_1-2" data-name="Capa 1">
    <g>
      <g>
        <path class="cls-2" d="M197.88,182.25c-5.3-12.31-8.71-25.66-10.14-39.83l-40.59,2.91c6.18,1.46,11.48,3.58,15.91,6.36,9.38,5.9,14.07,15.08,14.07,27.6s-4.69,22-14.07,27.76c-9.38,5.78-22.73,8.66-40.04,8.66H46.89v-72.87h.01v-36.44h-.01V36.8h66.38c16.1,0,28.61,2.88,37.52,8.65,8.89,5.78,13.34,14.56,13.34,26.34s-4.45,20.19-13.34,25.97c-1.96,1.27-4.08,2.39-6.38,3.36l44.04,3.15c1.69-12.01,4.84-23.39,9.41-33.98,3.21-7.45,7.02-14.55,11.45-21.24-3.3-12.41-10.54-22.8-21.74-31.21C171.72,5.94,148.75,0,118.68,0H0v252.51h125.9c32.47,0,56.93-6,73.4-18.04,7.77-5.68,13.71-12.43,17.83-20.24-7.81-9.69-14.26-20.4-19.25-31.99Z"/>
        <path class="cls-2" d="M427.35,42.76l-28.85,27.15c-8.93-9.39-18.79-16.44-29.56-21.13-10.77-4.69-22.33-7.05-34.69-7.05h-.01c-12.59.01-24.1,2.08-34.53,6.2-10.42,4.12-19.46,9.96-27.14,17.52-7.68,7.56-13.68,16.5-18.04,26.81-2.2,5.21-3.84,10.68-4.93,16.41l-44.71-3.21c0-.07.01-.16.03-.24,1.28-8.5,3.41-16.59,6.38-24.27.52-1.4,1.08-2.78,1.67-4.15,6.41-14.89,15.46-27.94,27.14-39.17,11.68-11.22,25.3-19.88,40.88-25.94,15.58-6.08,32.65-9.11,51.2-9.11h.01c19.7,0,37.66,3.38,53.93,10.13,16.26,6.77,30,16.79,41.23,30.06Z"/>
        <path class="cls-2" d="M427.36,209.4c-11.22,13.29-24.97,23.36-41.22,30.24-16.26,6.87-34.36,10.3-54.29,10.3h-.01c-18.55,0-35.62-3.03-51.18-9.1-15.58-6.06-29.15-14.71-40.73-25.94-6.33-6.14-11.89-12.83-16.67-20.07-3.97-5.99-7.41-12.35-10.3-19.09-4.6-10.68-7.54-22.18-8.84-34.5l5.38-.39,39.2-2.81c.96,7.87,2.9,15.28,5.84,22.22,4.35,10.3,10.36,19.24,18.04,26.79,7.68,7.56,16.71,13.4,27.14,17.52,10.42,4.12,21.92,6.18,34.53,6.18h.01c12.37,0,23.93-2.34,34.69-7.03,10.77-4.7,20.61-11.86,29.54-21.49l28.87,27.15Z"/>
      </g>
      <path class="cls-1" d="M396.29,120.21l-145.58-3-7.9-.31-7.9-.31-42.92-1.72-7.89-.31-4.85-.19-3.04-.12-107.01-4.27c-19.8-.03-19.73,26.76,0,26.71l106.75-4.26,7.88-.31,3-.12,4.89-.19,42.88-1.72,7.88-.31,7.89-.31,145.94-3c5.28,0,5.28-6.24,0-6.24ZM300.84,123.52c0,.89-.73,1.6-1.62,1.6l-33.84.51c-.89,0-1.61-1.23-1.61-2.11v-.8c0-.89.72-2.2,1.61-2.2l33.84.62c.89,0,1.62.69,1.62,1.58v.8Z"/>
    </g>
  </g>
</svg>