<?xml version="1.0" encoding="UTF-8"?>
<svg id="Capa_2" data-name="Capa 2" xmlns="http://www.w3.org/2000/svg" viewBox="0 0 690.24 180.39">
  <defs>
    <style>
      .cls-1 {
        fill: #080808;
      }

      .cls-2 {
        fill: #cfb88a;
      }

      .cls-3 {
        fill: #0e2543;
      }
    </style>
  </defs>
  <g id="Capa_1-2" data-name="Capa 1">
    <g>
      <path class="cls-3" d="M100.99,79.31s-.01.08-.01.12h-.07s.07-.08.09-.12Z"/>
      <path class="cls-3" d="M100.9,79.42h.07s0-.07.01-.11c-.02.04-.05.07-.09.11ZM100.9,79.42h.07s0-.07.01-.11c-.02.04-.05.07-.09.11ZM100.9,79.42h.07s0-.07.01-.11c-.02.04-.05.07-.09.11Z"/>
      <path class="cls-2" d="M195.3,86.7l-71.75-1.48-3.9-.15-3.9-.15-21.15-.85-3.89-.15-2.39-.09-1.5-.06-52.74-2.11c-9.76-.02-9.72,13.19,0,13.16l52.61-2.1,3.88-.15,1.48-.06,2.41-.09,21.13-.85,3.88-.15,3.89-.15,71.92-1.48c2.6,0,2.6-3.07,0-3.07ZM148.26,88.33c0,.44-.36.79-.8.79l-16.68.25c-.44,0-.79-.6-.79-1.04v-.39c0-.44.35-1.09.79-1.09l16.68.31c.44,0,.8.34.8.78v.39Z"/>
      <g>
        <g>
          <path class="cls-1" d="M264.88,106.73c2.03-1.97,4.43-3.51,7.2-4.6,2.77-1.1,5.77-1.64,9-1.64s6.06.56,8.8,1.69c2.74,1.12,5.21,2.84,7.4,5.14l5.35-5.18c-2.63-2.96-5.83-5.19-9.58-6.7-3.76-1.51-7.85-2.26-12.29-2.26s-8.43.73-12.13,2.18c-3.7,1.45-6.92,3.51-9.66,6.17-2.74,2.66-4.88,5.77-6.41,9.33-1.54,3.56-2.3,7.48-2.3,11.76s.77,8.2,2.3,11.76c1.53,3.56,3.66,6.67,6.37,9.33,2.71,2.66,5.92,4.72,9.62,6.17,3.7,1.45,7.74,2.18,12.13,2.18s8.62-.77,12.38-2.3c3.75-1.53,6.95-3.78,9.58-6.74l-5.35-5.18c-2.19,2.36-4.66,4.1-7.4,5.22-2.74,1.12-5.67,1.69-8.8,1.69s-6.24-.55-9-1.64c-2.77-1.1-5.17-2.63-7.2-4.6-2.03-1.97-3.61-4.32-4.73-7.03-1.12-2.71-1.69-5.66-1.69-8.84s.56-6.13,1.69-8.84c1.12-2.71,2.7-5.06,4.73-7.03Z"/>
          <path class="cls-1" d="M358.54,101.5c-2.74-2.66-5.98-4.71-9.7-6.17-3.73-1.45-7.78-2.18-12.17-2.18s-8.52.74-12.25,2.22c-3.73,1.48-6.96,3.55-9.7,6.21-2.74,2.66-4.88,5.77-6.41,9.33-1.54,3.56-2.3,7.46-2.3,11.68s.77,8.11,2.3,11.68c1.53,3.56,3.67,6.67,6.41,9.33,2.74,2.66,5.99,4.73,9.74,6.21,3.75,1.48,7.82,2.22,12.21,2.22s8.44-.73,12.17-2.18c3.73-1.45,6.96-3.51,9.7-6.17,2.74-2.66,4.86-5.77,6.37-9.33,1.51-3.56,2.26-7.48,2.26-11.76s-.75-8.13-2.26-11.72c-1.51-3.59-3.63-6.71-6.37-9.37ZM357.26,131.39c-1.12,2.69-2.69,5.03-4.69,7.03-2,2-4.36,3.55-7.07,4.65-2.71,1.1-5.69,1.64-8.92,1.64s-6.13-.55-8.84-1.64c-2.71-1.1-5.09-2.64-7.11-4.65-2.03-2-3.61-4.34-4.73-7.03-1.12-2.69-1.69-5.62-1.69-8.8s.56-6.1,1.69-8.76c1.12-2.66,2.7-5,4.73-7.03,2.03-2.03,4.4-3.59,7.11-4.69,2.71-1.1,5.66-1.64,8.84-1.64s6.21.55,8.92,1.64c2.71,1.1,5.07,2.66,7.07,4.69,2,2.03,3.56,4.37,4.69,7.03,1.12,2.66,1.69,5.58,1.69,8.76s-.56,6.11-1.69,8.8Z"/>
          <path class="cls-1" d="M415.11,131.48c3.56-1.59,6.3-3.88,8.22-6.87,1.92-2.99,2.88-6.56,2.88-10.73,0-6.3-2.14-11.22-6.41-14.76-4.28-3.54-10.14-5.3-17.6-5.3h-22.45v57.56h8.22v-17.51h14.23c1.26,0,2.48-.05,3.66-.15l12.38,17.66h8.96l-13.66-19.27c.54-.19,1.06-.4,1.57-.63ZM401.95,126.87h-13.98v-25.9h13.98c5.26,0,9.25,1.12,11.96,3.37,2.71,2.25,4.07,5.43,4.07,9.54s-1.36,7.31-4.07,9.58c-2.71,2.28-6.7,3.41-11.96,3.41Z"/>
          <path class="cls-1" d="M480.03,97.43c-4.69-2.41-10.1-3.62-16.24-3.62h-24.26v57.56h24.26c6.14,0,11.55-1.21,16.24-3.62,4.69-2.41,8.33-5.78,10.94-10.11,2.6-4.33,3.91-9.35,3.91-15.05s-1.3-10.72-3.91-15.05c-2.6-4.33-6.25-7.7-10.94-10.11ZM483.77,133.9c-1.92,3.26-4.62,5.8-8.1,7.61-3.48,1.81-7.61,2.71-12.38,2.71h-15.54v-43.25h15.54c4.77,0,8.89.9,12.38,2.71,3.48,1.81,6.18,4.33,8.1,7.56,1.92,3.24,2.88,7.02,2.88,11.35s-.96,8.05-2.88,11.31Z"/>
          <path class="cls-1" d="M555.31,101.5c-2.74-2.66-5.98-4.71-9.7-6.17-3.73-1.45-7.78-2.18-12.17-2.18s-8.52.74-12.25,2.22c-3.73,1.48-6.96,3.55-9.7,6.21-2.74,2.66-4.88,5.77-6.41,9.33-1.53,3.56-2.3,7.46-2.3,11.68s.77,8.11,2.3,11.68c1.53,3.56,3.67,6.67,6.41,9.33,2.74,2.66,5.99,4.73,9.74,6.21,3.75,1.48,7.82,2.22,12.21,2.22s8.44-.73,12.17-2.18c3.73-1.45,6.96-3.51,9.7-6.17,2.74-2.66,4.86-5.77,6.37-9.33,1.51-3.56,2.26-7.48,2.26-11.76s-.75-8.13-2.26-11.72c-1.51-3.59-3.63-6.71-6.37-9.37ZM554.03,131.39c-1.12,2.69-2.69,5.03-4.69,7.03-2,2-4.36,3.55-7.07,4.65-2.71,1.1-5.69,1.64-8.92,1.64s-6.13-.55-8.84-1.64c-2.71-1.1-5.09-2.64-7.11-4.65-2.03-2-3.6-4.34-4.73-7.03-1.12-2.69-1.69-5.62-1.69-8.8s.56-6.1,1.69-8.76c1.12-2.66,2.7-5,4.73-7.03,2.03-2.03,4.4-3.59,7.11-4.69,2.71-1.1,5.66-1.64,8.84-1.64s6.21.55,8.92,1.64c2.71,1.1,5.07,2.66,7.07,4.69,2,2.03,3.56,4.37,4.69,7.03,1.12,2.66,1.69,5.58,1.69,8.76s-.56,6.11-1.69,8.8Z"/>
          <path class="cls-1" d="M617.8,122.51c-.84-.38-1.74-.68-2.67-.94.04-.02.08-.03.12-.05,2.36-1.15,4.23-2.8,5.63-4.93,1.4-2.14,2.1-4.77,2.1-7.89,0-4.6-1.78-8.24-5.34-10.9-3.56-2.66-8.66-3.99-15.29-3.99h-25.82v57.56h27.46c7.29,0,12.79-1.36,16.49-4.07,3.7-2.71,5.55-6.54,5.55-11.47,0-3.29-.74-6.04-2.22-8.26-1.48-2.22-3.48-3.91-6-5.06ZM601.6,100.48c4.17,0,7.4.77,9.7,2.3,2.3,1.54,3.45,3.84,3.45,6.91s-1.15,5.37-3.45,6.91c-2.3,1.54-5.54,2.3-9.7,2.3h-16.86v-18.42h16.86ZM614.1,142.41c-2.41,1.54-5.89,2.3-10.44,2.3h-18.91v-19.16h18.91c4.55,0,8.03.77,10.44,2.3,2.41,1.54,3.62,3.98,3.62,7.32s-1.21,5.7-3.62,7.24Z"/>
          <path class="cls-1" d="M681.61,151.38h8.63l-26.15-57.56h-8.14l-26.07,57.56h8.47l6.32-14.39h30.6l6.32,14.39ZM647.57,130.41l12.41-28.24,12.41,28.24h-24.82Z"/>
        </g>
        <path class="cls-1" d="M210.62,130.65c-5.53,6.55-12.31,11.51-20.31,14.9-8.02,3.39-16.94,5.08-26.75,5.08h0c-9.14,0-17.55-1.49-25.22-4.48-7.68-2.99-14.37-7.25-20.07-12.78-3.12-3.02-5.86-6.32-8.21-9.89-1.96-2.95-3.65-6.09-5.08-9.41-2.27-5.26-3.72-10.93-4.36-17l2.65-.19,19.32-1.38c.47,3.88,1.43,7.53,2.88,10.95,2.14,5.08,5.11,9.48,8.89,13.2,3.78,3.72,8.24,6.6,13.37,8.63,5.14,2.03,10.8,3.05,17.02,3.05h0c6.09,0,11.79-1.16,17.1-3.47,5.31-2.32,10.16-5.84,14.56-10.59l14.23,13.38Z"/>
        <g>
          <g>
            <path class="cls-1" d="M288.58,53.79c-.44-.19-.9-.34-1.36-.5,1.95-1.03,3.54-2.39,4.7-4.14,1.29-1.94,1.94-4.23,1.94-6.86,0-3.93-1.59-7.09-4.78-9.49-3.19-2.39-7.94-3.59-14.26-3.59h-24.58v50.3h26.01c6.61,0,11.62-1.21,15.02-3.63,3.4-2.42,5.1-5.78,5.1-10.1,0-2.92-.7-5.39-2.08-7.4-1.39-2.01-3.29-3.54-5.71-4.6ZM273.38,37.98c2.83,0,4.99.48,6.5,1.44,1.51.96,2.26,2.44,2.26,4.46s-.75,3.51-2.26,4.49c-1.51.98-3.68,1.47-6.5,1.47h-11.57v-11.86h11.57ZM282.29,69.24c-1.58,1.01-3.86,1.51-6.83,1.51h-13.65v-12.43h13.65c2.97,0,5.25.5,6.83,1.51s2.37,2.59,2.37,4.74-.79,3.66-2.37,4.67Z"/>
            <path class="cls-1" d="M349.26,35.68c-2.49-2.35-5.4-4.16-8.73-5.43-3.33-1.27-6.98-1.9-10.96-1.9s-7.63.65-10.96,1.94c-3.33,1.29-6.24,3.12-8.73,5.46-2.49,2.35-4.42,5.09-5.78,8.23-1.36,3.14-2.05,6.6-2.05,10.38s.68,7.19,2.05,10.35c1.37,3.16,3.29,5.92,5.78,8.26,2.49,2.35,5.41,4.17,8.77,5.46,3.35,1.29,7.02,1.94,10.99,1.94s7.56-.64,10.89-1.9c3.33-1.27,6.24-3.08,8.73-5.43,2.49-2.35,4.42-5.11,5.78-8.3,1.36-3.19,2.05-6.65,2.05-10.38s-.68-7.26-2.05-10.42c-1.37-3.16-3.29-5.92-5.78-8.26ZM344.13,60.87c-.79,1.94-1.91,3.64-3.34,5.1-1.44,1.46-3.1,2.59-4.99,3.38-1.89.79-3.97,1.19-6.22,1.19s-4.34-.4-6.25-1.19c-1.92-.79-3.58-1.92-4.99-3.38-1.41-1.46-2.52-3.16-3.31-5.1-.79-1.94-1.19-4.11-1.19-6.5s.39-4.56,1.19-6.5c.79-1.94,1.89-3.64,3.31-5.1,1.41-1.46,3.08-2.59,4.99-3.38,1.92-.79,4-1.19,6.25-1.19s4.32.4,6.22,1.19c1.89.79,3.56,1.92,4.99,3.38,1.44,1.46,2.55,3.16,3.34,5.1.79,1.94,1.18,4.11,1.18,6.5s-.39,4.56-1.18,6.5Z"/>
            <path class="cls-1" d="M399.28,63.31c3.26-1.41,5.77-3.47,7.55-6.18,1.77-2.71,2.66-5.95,2.66-9.74,0-5.65-1.94-10.1-5.82-13.33-3.88-3.23-9.32-4.85-16.31-4.85h-21.49v50.3h11.71v-14.08h10.06c.17,0,.34,0,.51-.01l9.77,14.09h12.5l-11.21-16.18s.05-.02.07-.03ZM395.04,40.97c1.82,1.51,2.73,3.65,2.73,6.43s-.91,4.93-2.73,6.47c-1.82,1.53-4.5,2.3-8.05,2.3h-9.41v-17.46h9.41c3.54,0,6.23.75,8.05,2.26Z"/>
            <path class="cls-1" d="M455.98,32.34c-4.17-2.08-8.98-3.13-14.44-3.13h-22.85v50.3h22.85c5.46,0,10.28-1.04,14.44-3.13,4.17-2.08,7.43-5.01,9.77-8.77,2.35-3.76,3.52-8.18,3.52-13.26s-1.18-9.5-3.52-13.26c-2.35-3.76-5.6-6.68-9.77-8.77ZM455.44,62.67c-1.37,2.37-3.28,4.19-5.75,5.46-2.47,1.27-5.38,1.9-8.73,1.9h-10.56v-31.33h10.56c3.35,0,6.26.64,8.73,1.9,2.47,1.27,4.38,3.08,5.75,5.43,1.36,2.35,2.05,5.13,2.05,8.34s-.68,5.93-2.05,8.3Z"/>
            <path class="cls-1" d="M493.06,29.22l-22.35,50.3h11.93l4.48-10.78h23.3l4.48,10.78h12.22l-22.56-50.3h-11.5ZM490.8,59.9l7.97-19.18,7.97,19.18h-15.95Z"/>
            <path class="cls-1" d="M569.66,32.34c-4.17-2.08-8.98-3.13-14.44-3.13h-22.85v50.3h22.85c5.46,0,10.28-1.04,14.44-3.13,4.17-2.08,7.43-5.01,9.77-8.77,2.35-3.76,3.52-8.18,3.52-13.26s-1.18-9.5-3.52-13.26c-2.35-3.76-5.6-6.68-9.77-8.77ZM569.12,62.67c-1.37,2.37-3.28,4.19-5.75,5.46-2.47,1.27-5.38,1.9-8.73,1.9h-10.56v-31.33h10.56c3.35,0,6.26.64,8.73,1.9,2.47,1.27,4.38,3.08,5.75,5.43,1.36,2.35,2.05,5.13,2.05,8.34s-.68,5.93-2.05,8.3Z"/>
            <path class="cls-1" d="M635.77,35.68c-2.49-2.35-5.4-4.16-8.73-5.43-3.33-1.27-6.98-1.9-10.96-1.9s-7.63.65-10.96,1.94c-3.33,1.29-6.24,3.12-8.73,5.46-2.49,2.35-4.42,5.09-5.78,8.23-1.36,3.14-2.05,6.6-2.05,10.38s.68,7.19,2.05,10.35c1.37,3.16,3.29,5.92,5.78,8.26,2.49,2.35,5.41,4.17,8.77,5.46,3.35,1.29,7.02,1.94,10.99,1.94s7.56-.64,10.89-1.9c3.33-1.27,6.24-3.08,8.73-5.43,2.49-2.35,4.42-5.11,5.78-8.3,1.36-3.19,2.05-6.65,2.05-10.38s-.68-7.26-2.05-10.42c-1.37-3.16-3.29-5.92-5.78-8.26ZM630.63,60.87c-.79,1.94-1.91,3.64-3.34,5.1-1.44,1.46-3.1,2.59-4.99,3.38-1.89.79-3.96,1.19-6.22,1.19s-4.34-.4-6.25-1.19c-1.92-.79-3.58-1.92-4.99-3.38-1.41-1.46-2.52-3.16-3.31-5.1s-1.19-4.11-1.19-6.5.4-4.56,1.19-6.5c.79-1.94,1.89-3.64,3.31-5.1,1.41-1.46,3.08-2.59,4.99-3.38,1.92-.79,4-1.19,6.25-1.19s4.32.4,6.22,1.19c1.89.79,3.56,1.92,4.99,3.38,1.44,1.46,2.55,3.16,3.34,5.1.79,1.94,1.18,4.11,1.18,6.5s-.39,4.56-1.18,6.5Z"/>
            <path class="cls-1" d="M688.62,58.28c-1.08-1.75-2.48-3.14-4.2-4.17-1.72-1.03-3.62-1.88-5.68-2.55-2.06-.67-4.14-1.23-6.25-1.69-2.11-.45-4.02-.91-5.75-1.37-1.72-.45-3.11-1.09-4.17-1.9-1.05-.81-1.58-1.89-1.58-3.23,0-1.05.32-2.01.97-2.87.65-.86,1.66-1.55,3.05-2.05s3.23-.75,5.53-.75,4.5.32,6.9.97c2.4.65,4.72,1.62,6.97,2.91l3.67-8.77c-2.3-1.44-4.99-2.54-8.08-3.31-3.09-.77-6.22-1.15-9.38-1.15-4.74,0-8.68.71-11.82,2.12-3.14,1.41-5.47,3.31-7.01,5.68-1.53,2.37-2.3,4.99-2.3,7.87,0,2.63.51,4.83,1.54,6.58,1.03,1.75,2.42,3.16,4.17,4.24,1.75,1.08,3.67,1.94,5.75,2.59,2.08.65,4.16,1.2,6.22,1.65,2.06.46,3.96.93,5.71,1.44,1.75.5,3.15,1.15,4.2,1.94,1.05.79,1.58,1.86,1.58,3.2,0,1.05-.34,1.98-1.01,2.77-.67.79-1.71,1.43-3.13,1.9-1.41.48-3.27.72-5.57.72-3.02,0-6.01-.49-8.98-1.47-2.97-.98-5.51-2.24-7.62-3.77l-3.95,8.77c2.25,1.72,5.23,3.13,8.95,4.2,3.71,1.08,7.58,1.62,11.61,1.62,4.74,0,8.7-.72,11.86-2.16,3.16-1.44,5.52-3.33,7.08-5.68,1.56-2.35,2.34-4.93,2.34-7.76,0-2.59-.54-4.75-1.62-6.5Z"/>
          </g>
          <path class="cls-1" d="M97.52,117.27c-2.61-6.06-4.29-12.64-5-19.63l-20,1.44c3.05.72,5.66,1.77,7.84,3.14,4.62,2.91,6.93,7.43,6.93,13.6s-2.31,10.84-6.93,13.68c-4.62,2.85-11.2,4.27-19.73,4.27H23.11v-35.91h0v-17.96h0v-34.31h32.72c7.93,0,14.1,1.42,18.49,4.26,4.38,2.85,6.57,7.18,6.57,12.98s-2.19,9.95-6.57,12.8c-.96.63-2.01,1.18-3.14,1.66l21.7,1.55c.83-5.92,2.38-11.53,4.64-16.74,1.58-3.67,3.46-7.17,5.65-10.47-1.63-6.12-5.2-11.24-10.72-15.38-7.82-5.87-19.14-8.8-33.95-8.8H0v124.44h62.05c16,0,28.06-2.96,36.17-8.89,3.83-2.8,6.76-6.12,8.79-9.97-3.85-4.78-7.03-10.05-9.49-15.77Z"/>
          <path class="cls-1" d="M210.61,48.53l-14.22,13.38c-4.4-4.63-9.26-8.1-14.57-10.41-5.31-2.31-11-3.47-17.1-3.47h0c-6.2,0-11.88,1.02-17.02,3.05s-9.59,4.91-13.37,8.63-6.74,8.13-8.89,13.21c-1.08,2.57-1.89,5.26-2.43,8.09l-22.04-1.58s0-.08.01-.12c.63-4.19,1.68-8.18,3.14-11.96.26-.69.53-1.37.82-2.05,3.16-7.34,7.62-13.77,13.37-19.31,5.76-5.53,12.47-9.8,20.14-12.78,7.68-3,16.09-4.49,25.23-4.49h0c9.71,0,18.56,1.66,26.58,4.99,8.02,3.33,14.79,8.27,20.32,14.82Z"/>
          <path class="cls-1" d="M230.45,180.39c-.97,0-1.75-.78-1.75-1.75V1.75c0-.97.78-1.75,1.75-1.75s1.75.78,1.75,1.75v176.89c0,.97-.78,1.75-1.75,1.75Z"/>
        </g>
      </g>
    </g>
  </g>
</svg>