<?xml version="1.0" encoding="UTF-8"?>
<svg id="Capa_2" data-name="Capa 2" xmlns="http://www.w3.org/2000/svg" viewBox="0 0 440 248.43">
  <defs>
    <style>
      .cls-1 {
        fill: #080808;
      }

      .cls-2 {
        fill: #cfb88a;
      }
    </style>
  </defs>
  <g id="Capa_1-2" data-name="Capa 1">
    <g>
      <g>
        <g>
          <path class="cls-1" d="M14.64,203.12c2.03-1.97,4.43-3.51,7.2-4.6,2.77-1.1,5.77-1.64,9-1.64s6.06.56,8.8,1.69c2.74,1.12,5.21,2.84,7.4,5.14l5.35-5.18c-2.63-2.96-5.83-5.19-9.58-6.7-3.76-1.51-7.85-2.26-12.29-2.26s-8.43.73-12.13,2.18c-3.7,1.45-6.92,3.51-9.66,6.17-2.74,2.66-4.88,5.77-6.41,9.33-1.54,3.56-2.3,7.48-2.3,11.76s.77,8.2,2.3,11.76c1.53,3.56,3.66,6.67,6.37,9.33,2.71,2.66,5.92,4.72,9.62,6.17,3.7,1.45,7.74,2.18,12.13,2.18s8.62-.77,12.38-2.3c3.75-1.53,6.95-3.78,9.58-6.74l-5.35-5.18c-2.19,2.36-4.66,4.1-7.4,5.22-2.74,1.12-5.67,1.69-8.8,1.69s-6.24-.55-9-1.64c-2.77-1.1-5.17-2.63-7.2-4.6-2.03-1.97-3.61-4.32-4.73-7.03-1.12-2.71-1.69-5.66-1.69-8.84s.56-6.13,1.69-8.84c1.12-2.71,2.7-5.06,4.73-7.03Z"/>
          <path class="cls-1" d="M108.3,197.9c-2.74-2.66-5.98-4.71-9.7-6.17-3.73-1.45-7.78-2.18-12.17-2.18s-8.52.74-12.25,2.22c-3.73,1.48-6.96,3.55-9.7,6.21-2.74,2.66-4.88,5.77-6.41,9.33-1.54,3.56-2.3,7.46-2.3,11.68s.77,8.11,2.3,11.68c1.53,3.56,3.67,6.67,6.41,9.33,2.74,2.66,5.99,4.73,9.74,6.21,3.75,1.48,7.82,2.22,12.21,2.22s8.44-.73,12.17-2.18c3.73-1.45,6.96-3.51,9.7-6.17,2.74-2.66,4.86-5.77,6.37-9.33,1.51-3.56,2.26-7.48,2.26-11.76s-.75-8.13-2.26-11.72c-1.51-3.59-3.63-6.71-6.37-9.37ZM107.02,227.79c-1.12,2.69-2.69,5.03-4.69,7.03-2,2-4.36,3.55-7.07,4.65-2.71,1.1-5.69,1.64-8.92,1.64s-6.13-.55-8.84-1.64c-2.71-1.1-5.09-2.64-7.11-4.65-2.03-2-3.61-4.34-4.73-7.03-1.12-2.69-1.69-5.62-1.69-8.8s.56-6.1,1.69-8.76c1.12-2.66,2.7-5,4.73-7.03,2.03-2.03,4.4-3.59,7.11-4.69,2.71-1.1,5.66-1.64,8.84-1.64s6.21.55,8.92,1.64c2.71,1.1,5.07,2.66,7.07,4.69,2,2.03,3.56,4.37,4.69,7.03,1.12,2.66,1.69,5.58,1.69,8.76s-.56,6.11-1.69,8.8Z"/>
          <path class="cls-1" d="M164.87,227.88c3.56-1.59,6.3-3.88,8.22-6.87,1.92-2.99,2.88-6.56,2.88-10.73,0-6.3-2.14-11.22-6.41-14.76-4.28-3.54-10.14-5.3-17.6-5.3h-22.45v57.56h8.22v-17.51h14.23c1.26,0,2.48-.05,3.66-.15l12.38,17.66h8.96l-13.66-19.27c.54-.19,1.06-.4,1.57-.63ZM151.71,223.27h-13.98v-25.9h13.98c5.26,0,9.25,1.12,11.96,3.37,2.71,2.25,4.07,5.43,4.07,9.54s-1.36,7.31-4.07,9.58c-2.71,2.28-6.7,3.41-11.96,3.41Z"/>
          <path class="cls-1" d="M229.79,193.83c-4.69-2.41-10.1-3.62-16.24-3.62h-24.26v57.56h24.26c6.14,0,11.55-1.21,16.24-3.62,4.69-2.41,8.33-5.78,10.94-10.11,2.6-4.33,3.91-9.35,3.91-15.05s-1.3-10.72-3.91-15.05c-2.6-4.33-6.25-7.7-10.94-10.11ZM233.53,230.3c-1.92,3.26-4.62,5.8-8.1,7.61-3.48,1.81-7.61,2.71-12.38,2.71h-15.54v-43.25h15.54c4.77,0,8.89.9,12.38,2.71,3.48,1.81,6.18,4.33,8.1,7.56,1.92,3.24,2.88,7.02,2.88,11.35s-.96,8.05-2.88,11.31Z"/>
          <path class="cls-1" d="M305.06,197.9c-2.74-2.66-5.98-4.71-9.7-6.17-3.73-1.45-7.78-2.18-12.17-2.18s-8.52.74-12.25,2.22c-3.73,1.48-6.96,3.55-9.7,6.21-2.74,2.66-4.88,5.77-6.41,9.33-1.53,3.56-2.3,7.46-2.3,11.68s.77,8.11,2.3,11.68c1.53,3.56,3.67,6.67,6.41,9.33,2.74,2.66,5.99,4.73,9.74,6.21,3.75,1.48,7.82,2.22,12.21,2.22s8.44-.73,12.17-2.18c3.73-1.45,6.96-3.51,9.7-6.17,2.74-2.66,4.86-5.77,6.37-9.33,1.51-3.56,2.26-7.48,2.26-11.76s-.75-8.13-2.26-11.72c-1.51-3.59-3.63-6.71-6.37-9.37ZM303.79,227.79c-1.12,2.69-2.69,5.03-4.69,7.03-2,2-4.36,3.55-7.07,4.65-2.71,1.1-5.69,1.64-8.92,1.64s-6.13-.55-8.84-1.64c-2.71-1.1-5.09-2.64-7.11-4.65-2.03-2-3.6-4.34-4.73-7.03-1.12-2.69-1.69-5.62-1.69-8.8s.56-6.1,1.69-8.76c1.12-2.66,2.7-5,4.73-7.03,2.03-2.03,4.4-3.59,7.11-4.69,2.71-1.1,5.66-1.64,8.84-1.64s6.21.55,8.92,1.64c2.71,1.1,5.07,2.66,7.07,4.69,2,2.03,3.56,4.37,4.69,7.03,1.12,2.66,1.69,5.58,1.69,8.76s-.56,6.11-1.69,8.8Z"/>
          <path class="cls-1" d="M367.56,218.91c-.84-.38-1.74-.68-2.67-.94.04-.02.08-.03.12-.05,2.36-1.15,4.23-2.8,5.63-4.93,1.4-2.14,2.1-4.77,2.1-7.89,0-4.6-1.78-8.24-5.34-10.9-3.56-2.66-8.66-3.99-15.29-3.99h-25.82v57.56h27.46c7.29,0,12.79-1.36,16.49-4.07,3.7-2.71,5.55-6.54,5.55-11.47,0-3.29-.74-6.04-2.22-8.26-1.48-2.22-3.48-3.91-6-5.06ZM351.36,196.88c4.17,0,7.4.77,9.7,2.3,2.3,1.54,3.45,3.84,3.45,6.91s-1.15,5.37-3.45,6.91c-2.3,1.54-5.54,2.3-9.7,2.3h-16.86v-18.42h16.86ZM363.86,238.81c-2.41,1.54-5.89,2.3-10.44,2.3h-18.91v-19.16h18.91c4.55,0,8.03.77,10.44,2.3,2.41,1.54,3.62,3.98,3.62,7.32s-1.21,5.7-3.62,7.24Z"/>
          <path class="cls-1" d="M431.37,247.77h8.63l-26.15-57.56h-8.14l-26.07,57.56h8.47l6.32-14.39h30.6l6.32,14.39ZM397.33,226.81l12.41-28.24,12.41,28.24h-24.82Z"/>
        </g>
        <g>
          <path class="cls-1" d="M38.34,150.19c-.44-.19-.9-.34-1.36-.5,1.95-1.03,3.54-2.39,4.7-4.14,1.29-1.94,1.94-4.23,1.94-6.86,0-3.93-1.59-7.09-4.78-9.49-3.19-2.39-7.94-3.59-14.26-3.59H0v50.3h26.01c6.61,0,11.62-1.21,15.02-3.63,3.4-2.42,5.1-5.78,5.1-10.1,0-2.92-.7-5.39-2.08-7.4-1.39-2.01-3.29-3.54-5.71-4.6ZM23.14,134.38c2.83,0,4.99.48,6.5,1.44,1.51.96,2.26,2.44,2.26,4.46s-.75,3.51-2.26,4.49c-1.51.98-3.68,1.47-6.5,1.47h-11.57v-11.86h11.57ZM32.05,165.64c-1.58,1.01-3.86,1.51-6.83,1.51h-13.65v-12.43h13.65c2.97,0,5.25.5,6.83,1.51s2.37,2.59,2.37,4.74-.79,3.66-2.37,4.67Z"/>
          <path class="cls-1" d="M99.02,132.08c-2.49-2.35-5.4-4.16-8.73-5.43-3.33-1.27-6.98-1.9-10.96-1.9s-7.63.65-10.96,1.94c-3.33,1.29-6.24,3.12-8.73,5.46-2.49,2.35-4.42,5.09-5.78,8.23-1.36,3.14-2.05,6.6-2.05,10.38s.68,7.19,2.05,10.35c1.37,3.16,3.29,5.92,5.78,8.26,2.49,2.35,5.41,4.17,8.77,5.46,3.35,1.29,7.02,1.94,10.99,1.94s7.56-.64,10.89-1.9c3.33-1.27,6.24-3.08,8.73-5.43,2.49-2.35,4.42-5.11,5.78-8.3,1.36-3.19,2.05-6.65,2.05-10.38s-.68-7.26-2.05-10.42c-1.37-3.16-3.29-5.92-5.78-8.26ZM93.89,157.27c-.79,1.94-1.91,3.64-3.34,5.1-1.44,1.46-3.1,2.59-4.99,3.38-1.89.79-3.97,1.19-6.22,1.19s-4.34-.4-6.25-1.19c-1.92-.79-3.58-1.92-4.99-3.38-1.41-1.46-2.52-3.16-3.31-5.1-.79-1.94-1.19-4.11-1.19-6.5s.39-4.56,1.19-6.5c.79-1.94,1.89-3.64,3.31-5.1,1.41-1.46,3.08-2.59,4.99-3.38,1.92-.79,4-1.19,6.25-1.19s4.32.4,6.22,1.19c1.89.79,3.56,1.92,4.99,3.38,1.44,1.46,2.55,3.16,3.34,5.1.79,1.94,1.18,4.11,1.18,6.5s-.39,4.56-1.18,6.5Z"/>
          <path class="cls-1" d="M149.04,159.71c3.26-1.41,5.77-3.47,7.55-6.18,1.77-2.71,2.66-5.95,2.66-9.74,0-5.65-1.94-10.1-5.82-13.33-3.88-3.23-9.32-4.85-16.31-4.85h-21.49v50.3h11.71v-14.08h10.06c.17,0,.34,0,.51-.01l9.77,14.09h12.5l-11.21-16.18s.05-.02.07-.03ZM144.8,137.36c1.82,1.51,2.73,3.65,2.73,6.43s-.91,4.93-2.73,6.47c-1.82,1.53-4.5,2.3-8.05,2.3h-9.41v-17.46h9.41c3.54,0,6.23.75,8.05,2.26Z"/>
          <path class="cls-1" d="M205.74,128.74c-4.17-2.08-8.98-3.13-14.44-3.13h-22.85v50.3h22.85c5.46,0,10.28-1.04,14.44-3.13,4.17-2.08,7.43-5.01,9.77-8.77,2.35-3.76,3.52-8.18,3.52-13.26s-1.18-9.5-3.52-13.26c-2.35-3.76-5.6-6.68-9.77-8.77ZM205.2,159.07c-1.37,2.37-3.28,4.19-5.75,5.46-2.47,1.27-5.38,1.9-8.73,1.9h-10.56v-31.33h10.56c3.35,0,6.26.64,8.73,1.9,2.47,1.27,4.38,3.08,5.75,5.43,1.36,2.35,2.05,5.13,2.05,8.34s-.68,5.93-2.05,8.3Z"/>
          <path class="cls-1" d="M242.82,125.62l-22.35,50.3h11.93l4.48-10.78h23.3l4.48,10.78h12.22l-22.56-50.3h-11.5ZM240.55,156.3l7.97-19.18,7.97,19.18h-15.95Z"/>
          <path class="cls-1" d="M319.42,128.74c-4.17-2.08-8.98-3.13-14.44-3.13h-22.85v50.3h22.85c5.46,0,10.28-1.04,14.44-3.13,4.17-2.08,7.43-5.01,9.77-8.77,2.35-3.76,3.52-8.18,3.52-13.26s-1.18-9.5-3.52-13.26c-2.35-3.76-5.6-6.68-9.77-8.77ZM318.88,159.07c-1.37,2.37-3.28,4.19-5.75,5.46-2.47,1.27-5.38,1.9-8.73,1.9h-10.56v-31.33h10.56c3.35,0,6.26.64,8.73,1.9,2.47,1.27,4.38,3.08,5.75,5.43,1.36,2.35,2.05,5.13,2.05,8.34s-.68,5.93-2.05,8.3Z"/>
          <path class="cls-1" d="M385.53,132.08c-2.49-2.35-5.4-4.16-8.73-5.43-3.33-1.27-6.98-1.9-10.96-1.9s-7.63.65-10.96,1.94c-3.33,1.29-6.24,3.12-8.73,5.46-2.49,2.35-4.42,5.09-5.78,8.23-1.36,3.14-2.05,6.6-2.05,10.38s.68,7.19,2.05,10.35c1.37,3.16,3.29,5.92,5.78,8.26,2.49,2.35,5.41,4.17,8.77,5.46,3.35,1.29,7.02,1.94,10.99,1.94s7.56-.64,10.89-1.9c3.33-1.27,6.24-3.08,8.73-5.43,2.49-2.35,4.42-5.11,5.78-8.3,1.36-3.19,2.05-6.65,2.05-10.38s-.68-7.26-2.05-10.42c-1.37-3.16-3.29-5.92-5.78-8.26ZM380.39,157.27c-.79,1.94-1.91,3.64-3.34,5.1-1.44,1.46-3.1,2.59-4.99,3.38-1.89.79-3.96,1.19-6.22,1.19s-4.34-.4-6.25-1.19c-1.92-.79-3.58-1.92-4.99-3.38-1.41-1.46-2.52-3.16-3.31-5.1s-1.19-4.11-1.19-6.5.4-4.56,1.19-6.5c.79-1.94,1.89-3.64,3.31-5.1,1.41-1.46,3.08-2.59,4.99-3.38,1.92-.79,4-1.19,6.25-1.19s4.32.4,6.22,1.19c1.89.79,3.56,1.92,4.99,3.38,1.44,1.46,2.55,3.16,3.34,5.1.79,1.94,1.18,4.11,1.18,6.5s-.39,4.56-1.18,6.5Z"/>
          <path class="cls-1" d="M438.38,154.68c-1.08-1.75-2.48-3.14-4.2-4.17-1.72-1.03-3.62-1.88-5.68-2.55-2.06-.67-4.14-1.23-6.25-1.69-2.11-.45-4.02-.91-5.75-1.37-1.72-.45-3.11-1.09-4.17-1.9-1.05-.81-1.58-1.89-1.58-3.23,0-1.05.32-2.01.97-2.87.65-.86,1.66-1.55,3.05-2.05s3.23-.75,5.53-.75,4.5.32,6.9.97c2.4.65,4.72,1.62,6.97,2.91l3.67-8.77c-2.3-1.44-4.99-2.54-8.08-3.31-3.09-.77-6.22-1.15-9.38-1.15-4.74,0-8.68.71-11.82,2.12-3.14,1.41-5.47,3.31-7.01,5.68-1.53,2.37-2.3,4.99-2.3,7.87,0,2.63.51,4.83,1.54,6.58,1.03,1.75,2.42,3.16,4.17,4.24,1.75,1.08,3.67,1.94,5.75,2.59,2.08.65,4.16,1.2,6.22,1.65,2.06.46,3.96.93,5.71,1.44,1.75.5,3.15,1.15,4.2,1.94,1.05.79,1.58,1.86,1.58,3.2,0,1.05-.34,1.98-1.01,2.77-.67.79-1.71,1.43-3.13,1.9-1.41.48-3.27.72-5.57.72-3.02,0-6.01-.49-8.98-1.47-2.97-.98-5.51-2.24-7.62-3.77l-3.95,8.77c2.25,1.72,5.23,3.13,8.95,4.2,3.71,1.08,7.58,1.62,11.61,1.62,4.74,0,8.7-.72,11.86-2.16,3.16-1.44,5.52-3.33,7.08-5.68,1.56-2.35,2.34-4.93,2.34-7.76,0-2.59-.54-4.75-1.62-6.5Z"/>
        </g>
      </g>
      <path class="cls-1" d="M213.53,71.53c-2.08-4.83-3.42-10.07-3.98-15.63l-15.93,1.14c2.43.57,4.51,1.41,6.24,2.5,3.68,2.32,5.52,5.92,5.52,10.83s-1.84,8.63-5.52,10.9c-3.68,2.27-8.92,3.4-15.72,3.4h-29.88v-28.6h0v-14.3h0V14.44h26.06c6.32,0,11.23,1.13,14.73,3.39,3.49,2.27,5.23,5.72,5.23,10.34s-1.75,7.93-5.23,10.19c-.77.5-1.6.94-2.5,1.32l17.29,1.24c.66-4.71,1.9-9.18,3.69-13.34,1.26-2.93,2.76-5.71,4.5-8.34-1.3-4.87-4.14-8.95-8.53-12.25-6.23-4.67-15.24-7-27.04-7h-46.58v99.11h49.42c12.74,0,22.35-2.36,28.81-7.08,3.05-2.23,5.38-4.88,7-7.94-3.07-3.8-5.6-8.01-7.56-12.56Z"/>
      <g>
        <path class="cls-1" d="M304.14,16.4l-11.52,10.84c-3.57-3.75-7.5-6.56-11.8-8.44-4.3-1.87-8.91-2.81-13.85-2.81h0c-5.03,0-9.62.83-13.78,2.47s-7.77,3.98-10.83,6.99c-3.06,3.02-5.46,6.59-7.2,10.7-.88,2.08-1.53,4.26-1.97,6.55l-17.85-1.28s0-.07.01-.1c.51-3.39,1.36-6.62,2.55-9.69.21-.56.43-1.11.67-1.66,2.56-5.94,6.17-11.16,10.83-15.64,4.66-4.48,10.1-7.94,16.32-10.36,6.22-2.43,13.03-3.64,20.44-3.64h0c7.86,0,15.04,1.35,21.53,4.04,6.49,2.7,11.98,6.7,16.46,12Z"/>
        <path class="cls-1" d="M215.33,41.33s-.01.07-.01.1h-.06s.05-.07.07-.1Z"/>
        <path class="cls-1" d="M304.14,82.93c-4.48,5.31-9.97,9.32-16.46,12.07-6.49,2.74-13.72,4.11-21.67,4.11h0c-7.41,0-14.22-1.21-20.43-3.63-6.22-2.42-11.64-5.87-16.26-10.36-2.53-2.45-4.75-5.12-6.65-8.01-1.59-2.39-2.96-4.93-4.11-7.62-1.84-4.26-3.01-8.85-3.53-13.77l2.15-.16,15.65-1.12c.38,3.14,1.16,6.1,2.33,8.87,1.73,4.11,4.14,7.68,7.2,10.7,3.06,3.02,6.67,5.35,10.83,6.99,4.16,1.65,8.75,2.47,13.78,2.47h0c4.94,0,9.55-.94,13.85-2.81,4.3-1.88,8.23-4.73,11.79-8.58l11.52,10.84Z"/>
        <path class="cls-1" d="M215.26,41.42h.06s0-.06.01-.09c-.02.03-.04.06-.07.09ZM215.26,41.42h.06s0-.06.01-.09c-.02.03-.04.06-.07.09ZM215.26,41.42h.06s0-.06.01-.09c-.02.03-.04.06-.07.09Z"/>
      </g>
      <path class="cls-2" d="M291.41,47.07l-57.14-1.18-3.1-.12-3.1-.12-16.85-.67-3.1-.12-1.9-.07-1.19-.05-42-1.68c-7.77-.01-7.74,10.51,0,10.48l41.9-1.67,3.09-.12,1.18-.05,1.92-.07,16.83-.67,3.09-.12,3.1-.12,57.28-1.18c2.07,0,2.07-2.45,0-2.45ZM253.94,48.36c0,.35-.29.63-.64.63l-13.28.2c-.35,0-.63-.48-.63-.83v-.31c0-.35.28-.86.63-.86l13.28.24c.35,0,.64.27.64.62v.31Z"/>
    </g>
  </g>
</svg>